<svg width="195" height="18" viewBox="0 0 195 18" fill="none" xmlns="http://www.w3.org/2000/svg">
<path d="M29.3989 1.15186V16.2129H27.9539V4.07292L22.1975 11.4379L16.4411 4.07292V16.2129H15V1.15186H15.8452L22.1975 9.31137L28.5732 1.15186H29.3989Z" fill="#AF9280"/>
<path d="M49.2362 1.15234L43.3201 10.9749V16.2134H41.8868V10.9983L35.9707 1.15234H37.626L42.5996 9.32744L47.581 1.15234H49.2362Z" fill="#AF9280"/>
<path d="M74.4404 11.9598C74.4404 13.2646 73.8991 14.3395 72.8202 15.1535C71.7609 15.9559 70.4795 16.3609 68.9995 16.3609H68.8748C67.4221 16.3609 66.1641 16.0454 65.132 15.4418C64.1038 14.8264 63.356 13.9812 62.9276 12.9218L62.8652 12.7816L63.8584 11.8586L63.9752 12.1546C64.3219 13.0231 64.9139 13.7203 65.7396 14.2266C66.573 14.7329 67.6246 14.9861 68.8748 14.9861H68.9995C70.1212 14.9861 71.0832 14.7017 71.8582 14.1409C72.6294 13.5878 73.0033 12.879 73.0033 11.9637C73.0033 11.1069 72.7462 10.4643 72.2204 10.0241C71.683 9.56846 70.8222 9.26078 69.6616 9.11277L67.8622 8.85962C66.3277 8.66099 65.167 8.26761 64.4309 7.68729C63.6714 7.0914 63.2859 6.24624 63.2859 5.17129C63.2859 3.94054 63.7961 2.91623 64.8126 2.14507C65.8058 1.38559 67.0015 1.00391 68.349 1.00391H68.6022C69.6888 1.00391 70.7054 1.22591 71.6284 1.66212C72.5593 2.09833 73.3188 2.73317 73.8796 3.54328L73.9887 3.69907L73.0227 4.60655L72.8747 4.40402C72.4113 3.75749 71.7959 3.25117 71.052 2.90454C70.2925 2.5579 69.4746 2.37875 68.6061 2.37875H68.3529C67.3987 2.37875 66.5419 2.6358 65.8019 3.14991C65.0813 3.64454 64.7308 4.30276 64.7308 5.15182C64.7308 5.81003 64.9645 6.30466 65.4475 6.66687C65.9538 7.04856 66.8145 7.32119 68.0102 7.48087L69.8018 7.73404C71.3441 7.93267 72.5086 8.36888 73.272 9.02709C74.0471 9.70478 74.4404 10.6901 74.4404 11.9598Z" fill="#AF9280"/>
<path d="M90.3659 1.15234V2.5233H85.5793V16.2134H84.1421V2.5233H79.3555V1.15234H90.3659Z" fill="#AF9280"/>
<path d="M108.182 3.25117C106.69 1.75948 104.86 1 102.753 1C101.697 1 100.712 1.19084 99.8084 1.56863C98.9009 1.94642 98.0752 2.50727 97.3313 3.25117C95.8474 4.74286 95.0957 6.5656 95.0957 8.68046C95.0957 10.7953 95.8474 12.6181 97.3313 14.1097C98.8152 15.6014 100.642 16.3609 102.757 16.3609C104.864 16.3609 106.694 15.6014 108.186 14.1097C109.678 12.6181 110.429 10.7875 110.429 8.68046C110.425 6.5656 109.67 4.74286 108.182 3.25117ZM102.749 14.9783C101.016 14.9783 99.5318 14.3668 98.3361 13.1594C97.1327 11.9559 96.529 10.4487 96.529 8.68046C96.529 6.90445 97.1327 5.40108 98.3361 4.1937C99.5318 2.99022 101.016 2.37485 102.749 2.37485C104.474 2.37485 105.958 2.99022 107.169 4.1937C108.377 5.40108 108.988 6.91224 108.988 8.68046C108.988 10.4487 108.377 11.9598 107.181 13.1594C105.982 14.3707 104.49 14.9783 102.749 14.9783Z" fill="#AF9280"/>
<path d="M126.502 13.4943C125.836 12.4544 125.135 11.7183 124.415 11.3133C125.42 10.9628 126.245 10.4331 126.888 9.72421C127.659 8.87905 128.041 7.79631 128.041 6.50714C128.041 4.81292 127.418 3.48093 126.179 2.54618C124.964 1.62313 123.394 1.15186 121.513 1.15186H116.742V16.2129H118.179V11.8663H121.638C122.464 11.8663 123.122 12.0026 123.605 12.2675C124.084 12.5323 124.629 13.1321 125.221 14.0435L126.627 16.2129H128.298L126.502 13.4943ZM118.175 2.52282H121.572C123.052 2.52282 124.282 2.86944 125.225 3.53934C126.164 4.20534 126.619 5.17125 126.619 6.50326C126.619 7.83526 126.164 8.80116 125.225 9.47495C124.282 10.1449 123.048 10.4876 121.572 10.4876H118.175V2.52282Z" fill="#AF9280"/>
<path d="M147.953 2.5233V7.89806H155.563V9.25344H147.953V14.8307H155.957V16.2134H146.516V1.15234H155.957V2.5233H147.953Z" fill="#AF9280"/>
<path d="M173.226 11.9598C173.226 13.2646 172.684 14.3395 171.605 15.1535C170.546 15.9559 169.265 16.3609 167.785 16.3609H167.66C166.207 16.3609 164.949 16.0454 163.917 15.4418C162.889 14.8264 162.141 13.9812 161.705 12.9218L161.65 12.7816L162.644 11.8586L162.76 12.1546C163.107 13.0231 163.699 13.7203 164.525 14.2266C165.358 14.7329 166.41 14.9861 167.66 14.9861H167.785C168.899 14.9861 169.868 14.7017 170.643 14.1409C171.415 13.5878 171.785 12.879 171.785 11.9637C171.785 11.1069 171.531 10.4643 171.009 10.0241C170.472 9.56846 169.611 9.26078 168.447 9.11277L166.647 8.85962C165.113 8.66099 163.96 8.26761 163.22 7.68729C162.46 7.0914 162.075 6.24624 162.075 5.17129C162.075 3.94054 162.585 2.91623 163.602 2.14507C164.595 1.38559 165.791 1.00391 167.138 1.00391H167.391C168.478 1.00391 169.494 1.22591 170.417 1.66212C171.348 2.09833 172.108 2.73317 172.669 3.54328L172.774 3.69907L171.812 4.60655L171.664 4.40402C171.2 3.75749 170.585 3.25117 169.841 2.90454C169.082 2.5579 168.264 2.37875 167.395 2.37875H167.142C166.188 2.37875 165.331 2.6358 164.591 3.14991C163.87 3.64454 163.52 4.30276 163.52 5.15182C163.52 5.81003 163.754 6.30466 164.237 6.66687C164.743 7.04856 165.6 7.32119 166.799 7.48087L168.591 7.73404C170.133 7.93267 171.298 8.36888 172.061 9.02709C172.832 9.70478 173.226 10.6901 173.226 11.9598Z" fill="#AF9280"/>
<path d="M180.099 14.8459C180.278 15.0173 180.375 15.2276 180.375 15.473C180.375 15.7144 180.278 15.9248 180.099 16.1C179.916 16.2714 179.698 16.3571 179.445 16.3571C179.191 16.3571 178.969 16.2636 178.79 16.1C178.607 15.9209 178.514 15.7106 178.514 15.473C178.514 15.2276 178.607 15.0173 178.79 14.8459C179.149 14.4993 179.733 14.4993 180.099 14.8459Z" fill="#AF9280"/>
<path d="M187.682 15.473C187.682 15.7144 187.589 15.9248 187.405 16.1C187.226 16.2675 187.004 16.3571 186.751 16.3571C186.506 16.3571 186.284 16.2636 186.105 16.1C185.922 15.9209 185.828 15.7106 185.828 15.473C185.828 15.2276 185.922 15.0173 186.105 14.8459C186.463 14.4993 187.047 14.4993 187.405 14.8459C187.592 15.0173 187.682 15.2276 187.682 15.473Z" fill="#AF9280"/>
<path d="M195 15.473C195 15.7144 194.907 15.9248 194.724 16.1C194.541 16.2714 194.323 16.3571 194.07 16.3571C193.816 16.3571 193.594 16.2636 193.415 16.1C193.232 15.9209 193.139 15.7106 193.139 15.473C193.139 15.2276 193.232 15.0173 193.415 14.8459C193.774 14.4993 194.358 14.4993 194.72 14.8459C194.907 15.0173 195 15.2276 195 15.473Z" fill="#AF9280"/>
<path d="M137.38 1.13232H135.924V16.1855H137.38V1.13232Z" fill="#AF9280"/>
<path d="M1 0V18" stroke="#AF9280"/>
</svg>
