<svg width="378" height="534" viewBox="0 0 378 534" fill="none" xmlns="http://www.w3.org/2000/svg">
<path d="M29.9543 26.0146C28.9626 26.0146 28.037 25.8824 27.1776 25.618C26.3181 25.337 25.6074 24.9486 25.0455 24.4527L25.7396 23.0396C26.3512 23.5189 27.0123 23.8743 27.723 24.1057C28.4502 24.337 29.2022 24.4527 29.9791 24.4527C30.9707 24.4527 31.7145 24.2792 32.2103 23.9321C32.7227 23.5685 32.9789 23.0727 32.9789 22.4446C32.9789 21.9653 32.8136 21.5852 32.483 21.3042C32.169 21.0067 31.6484 20.7753 30.9211 20.61L28.6155 20.139C27.5577 19.9076 26.7644 19.5192 26.2355 18.9738C25.7066 18.4118 25.4421 17.7011 25.4421 16.8417C25.4421 16.1144 25.6322 15.4781 26.0124 14.9327C26.3925 14.3707 26.9462 13.9327 27.6734 13.6187C28.4006 13.2882 29.2518 13.1229 30.227 13.1229C31.136 13.1229 31.9707 13.2634 32.7309 13.5443C33.5078 13.8088 34.1523 14.1972 34.6647 14.7096L33.9457 16.0979C33.4499 15.6186 32.8797 15.2632 32.2351 15.0318C31.607 14.7839 30.9542 14.66 30.2766 14.66C29.3014 14.66 28.5659 14.8583 28.0701 15.255C27.5908 15.6351 27.3511 16.1392 27.3511 16.7673C27.3511 17.2466 27.4999 17.6433 27.7974 17.9573C28.1114 18.2548 28.5907 18.4779 29.2353 18.6267L31.5409 19.0977C32.6648 19.3456 33.4995 19.734 34.0449 20.2629C34.6069 20.7753 34.8878 21.4695 34.8878 22.3454C34.8878 23.0892 34.6812 23.742 34.268 24.304C33.8548 24.8494 33.2764 25.2709 32.5326 25.5684C31.8054 25.8659 30.9459 26.0146 29.9543 26.0146ZM42.8483 26.0146C41.741 26.0146 40.7741 25.7584 39.9477 25.2461C39.1213 24.7172 38.4767 23.9734 38.0139 23.0148C37.5677 22.0562 37.3445 20.9075 37.3445 19.5688C37.3445 18.2135 37.5677 17.0565 38.0139 16.0979C38.4767 15.1393 39.1213 14.4038 39.9477 13.8914C40.7741 13.3791 41.741 13.1229 42.8483 13.1229C43.9722 13.1229 44.9391 13.4121 45.749 13.9906C46.5754 14.5525 47.1208 15.3211 47.3852 16.2962H47.0877L47.3604 13.346H49.2942C49.2446 13.8253 49.195 14.3129 49.1455 14.8087C49.1124 15.288 49.0959 15.7591 49.0959 16.2219V25.7915H47.0877V22.8661H47.3604C47.096 23.8412 46.5506 24.6098 45.7242 25.1717C44.8978 25.7337 43.9392 26.0146 42.8483 26.0146ZM43.245 24.3784C44.435 24.3784 45.3771 23.9734 46.0713 23.1636C46.7654 22.3372 47.1125 21.1389 47.1125 19.5688C47.1125 17.9821 46.7654 16.7838 46.0713 15.9739C45.3771 15.1475 44.435 14.7343 43.245 14.7343C42.0715 14.7343 41.1294 15.1475 40.4187 15.9739C39.7246 16.7838 39.3775 17.9821 39.3775 19.5688C39.3775 21.1389 39.7246 22.3372 40.4187 23.1636C41.1294 23.9734 42.0715 24.3784 43.245 24.3784ZM52.9785 25.7915V7.54472H54.9866V25.7915H52.9785ZM64.4145 26.0146C62.4642 26.0146 60.9271 25.4527 59.8032 24.3288C58.6793 23.1884 58.1174 21.6099 58.1174 19.5935C58.1174 18.2878 58.3653 17.1557 58.8611 16.1971C59.357 15.2219 60.0512 14.4699 60.9437 13.941C61.8362 13.3956 62.8609 13.1229 64.0178 13.1229C65.1583 13.1229 66.1169 13.3625 66.8937 13.8418C67.6705 14.3212 68.2655 15.0071 68.6787 15.8996C69.0919 16.7755 69.2985 17.8168 69.2985 19.0233V19.7671H59.6545V18.5027H67.9845L67.5631 18.825C67.5631 17.5028 67.2656 16.4698 66.6706 15.726C66.0756 14.9823 65.1913 14.6104 64.0178 14.6104C62.7783 14.6104 61.8114 15.0484 61.1172 15.9244C60.423 16.7838 60.0759 17.949 60.0759 19.42V19.6431C60.0759 21.1968 60.4561 22.3785 61.2164 23.1884C61.9932 23.9817 63.0758 24.3784 64.4641 24.3784C65.2079 24.3784 65.902 24.2709 66.5466 24.0561C67.2077 23.8247 67.8358 23.4528 68.4308 22.9404L69.125 24.3536C68.5795 24.8825 67.8854 25.2957 67.0425 25.5932C66.2161 25.8741 65.3401 26.0146 64.4145 26.0146Z" fill="#EDE9DF"/>
<path d="M6.40152 359.464C5.40985 359.464 4.48429 359.332 3.62484 359.068C2.76539 358.787 2.05469 358.398 1.49274 357.902L2.18691 356.489C2.79845 356.969 3.45956 357.324 4.17026 357.555C4.89749 357.787 5.64951 357.902 6.42632 357.902C7.41799 357.902 8.16174 357.729 8.65758 357.382C9.16995 357.018 9.42613 356.522 9.42613 355.894C9.42613 355.415 9.26085 355.035 8.93029 354.754C8.61626 354.456 8.09563 354.225 7.36841 354.06L5.06277 353.589C4.00498 353.357 3.21164 352.969 2.68275 352.423C2.15386 351.862 1.88941 351.151 1.88941 350.291C1.88941 349.564 2.07948 348.928 2.45962 348.382C2.83977 347.82 3.39345 347.382 4.12068 347.068C4.8479 346.738 5.69909 346.573 6.67423 346.573C7.58327 346.573 8.41793 346.713 9.17821 346.994C9.95502 347.258 10.5996 347.647 11.112 348.159L10.393 349.548C9.89717 349.068 9.32696 348.713 8.68237 348.482C8.05431 348.234 7.40146 348.11 6.72382 348.11C5.74867 348.11 5.01318 348.308 4.51735 348.705C4.03804 349.085 3.79838 349.589 3.79838 350.217C3.79838 350.696 3.94713 351.093 4.24464 351.407C4.55867 351.704 5.03797 351.928 5.68256 352.076L7.9882 352.547C9.1121 352.795 9.94676 353.184 10.4922 353.713C11.0541 354.225 11.3351 354.919 11.3351 355.795C11.3351 356.539 11.1285 357.192 10.7153 357.754C10.3021 358.299 9.72363 358.721 8.97988 359.018C8.25265 359.316 7.3932 359.464 6.40152 359.464ZM19.2956 359.464C18.1882 359.464 17.2214 359.208 16.395 358.696C15.5686 358.167 14.924 357.423 14.4612 356.465C14.0149 355.506 13.7918 354.357 13.7918 353.018C13.7918 351.663 14.0149 350.506 14.4612 349.548C14.924 348.589 15.5686 347.853 16.395 347.341C17.2214 346.829 18.1882 346.573 19.2956 346.573C20.4195 346.573 21.3864 346.862 22.1962 347.44C23.0226 348.002 23.5681 348.771 23.8325 349.746H23.535L23.8077 346.796H25.7415C25.6919 347.275 25.6423 347.763 25.5927 348.258C25.5597 348.738 25.5431 349.209 25.5431 349.672V359.241H23.535V356.316H23.8077C23.5433 357.291 22.9978 358.059 22.1715 358.621C21.3451 359.183 20.3864 359.464 19.2956 359.464ZM19.6923 357.828C20.8823 357.828 21.8244 357.423 22.5185 356.613C23.2127 355.787 23.5598 354.589 23.5598 353.018C23.5598 351.432 23.2127 350.234 22.5185 349.424C21.8244 348.597 20.8823 348.184 19.6923 348.184C18.5188 348.184 17.5767 348.597 16.866 349.424C16.1718 350.234 15.8247 351.432 15.8247 353.018C15.8247 354.589 16.1718 355.787 16.866 356.613C17.5767 357.423 18.5188 357.828 19.6923 357.828ZM29.4258 359.241V340.994H31.4339V359.241H29.4258ZM40.8618 359.464C38.9115 359.464 37.3744 358.902 36.2505 357.778C35.1266 356.638 34.5647 355.06 34.5647 353.043C34.5647 351.738 34.8126 350.605 35.3084 349.647C35.8042 348.672 36.4984 347.92 37.3909 347.391C38.2834 346.845 39.3082 346.573 40.4651 346.573C41.6055 346.573 42.5642 346.812 43.341 347.292C44.1178 347.771 44.7128 348.457 45.126 349.349C45.5392 350.225 45.7458 351.267 45.7458 352.473V353.217H36.1018V351.952H44.4318L44.0103 352.275C44.0103 350.952 43.7128 349.919 43.1178 349.176C42.5228 348.432 41.6386 348.06 40.4651 348.06C39.2255 348.06 38.2586 348.498 37.5645 349.374C36.8703 350.234 36.5232 351.399 36.5232 352.87V353.093C36.5232 354.646 36.9034 355.828 37.6636 356.638C38.4404 357.431 39.523 357.828 40.9114 357.828C41.6551 357.828 42.3493 357.721 42.9939 357.506C43.655 357.274 44.2831 356.903 44.8781 356.39L45.5722 357.803C45.0268 358.332 44.3326 358.745 43.4897 359.043C42.6633 359.324 41.7873 359.464 40.8618 359.464Z" fill="#EDE9DF"/>
<path d="M290.269 304.923C289.277 304.923 288.351 304.791 287.492 304.526C286.633 304.245 285.922 303.857 285.36 303.361L286.054 301.948C286.666 302.427 287.327 302.782 288.037 303.014C288.765 303.245 289.517 303.361 290.294 303.361C291.285 303.361 292.029 303.187 292.525 302.84C293.037 302.477 293.293 301.981 293.293 301.353C293.293 300.874 293.128 300.493 292.797 300.212C292.483 299.915 291.963 299.683 291.236 299.518L288.93 299.047C287.872 298.816 287.079 298.427 286.55 297.882C286.021 297.32 285.757 296.609 285.757 295.75C285.757 295.023 285.947 294.386 286.327 293.841C286.707 293.279 287.261 292.841 287.988 292.527C288.715 292.196 289.566 292.031 290.541 292.031C291.45 292.031 292.285 292.172 293.045 292.453C293.822 292.717 294.467 293.105 294.979 293.618L294.26 295.006C293.764 294.527 293.194 294.171 292.55 293.94C291.922 293.692 291.269 293.568 290.591 293.568C289.616 293.568 288.88 293.767 288.385 294.163C287.905 294.543 287.666 295.047 287.666 295.675C287.666 296.155 287.814 296.551 288.112 296.865C288.426 297.163 288.905 297.386 289.55 297.535L291.855 298.006C292.979 298.254 293.814 298.642 294.359 299.171C294.921 299.683 295.202 300.378 295.202 301.254C295.202 301.997 294.996 302.65 294.582 303.212C294.169 303.758 293.591 304.179 292.847 304.477C292.12 304.774 291.26 304.923 290.269 304.923ZM303.163 304.923C302.055 304.923 301.089 304.667 300.262 304.154C299.436 303.625 298.791 302.882 298.328 301.923C297.882 300.964 297.659 299.816 297.659 298.477C297.659 297.122 297.882 295.965 298.328 295.006C298.791 294.047 299.436 293.312 300.262 292.8C301.089 292.287 302.055 292.031 303.163 292.031C304.287 292.031 305.254 292.32 306.063 292.899C306.89 293.461 307.435 294.229 307.7 295.204H307.402L307.675 292.254H309.609C309.559 292.734 309.509 293.221 309.46 293.717C309.427 294.196 309.41 294.667 309.41 295.13V304.7H307.402V301.774H307.675C307.41 302.749 306.865 303.518 306.039 304.08C305.212 304.642 304.254 304.923 303.163 304.923ZM303.559 303.287C304.749 303.287 305.692 302.882 306.386 302.072C307.08 301.245 307.427 300.047 307.427 298.477C307.427 296.89 307.08 295.692 306.386 294.882C305.692 294.056 304.749 293.643 303.559 293.643C302.386 293.643 301.444 294.056 300.733 294.882C300.039 295.692 299.692 296.89 299.692 298.477C299.692 300.047 300.039 301.245 300.733 302.072C301.444 302.882 302.386 303.287 303.559 303.287ZM313.293 304.7V286.453H315.301V304.7H313.293ZM324.729 304.923C322.779 304.923 321.242 304.361 320.118 303.237C318.994 302.097 318.432 300.518 318.432 298.502C318.432 297.196 318.68 296.064 319.176 295.105C319.671 294.13 320.366 293.378 321.258 292.849C322.151 292.304 323.175 292.031 324.332 292.031C325.473 292.031 326.431 292.271 327.208 292.75C327.985 293.229 328.58 293.915 328.993 294.808C329.406 295.684 329.613 296.725 329.613 297.932V298.675H319.969V297.411H328.299L327.878 297.733C327.878 296.411 327.58 295.378 326.985 294.634C326.39 293.89 325.506 293.519 324.332 293.519C323.093 293.519 322.126 293.957 321.432 294.833C320.737 295.692 320.39 296.857 320.39 298.328V298.551C320.39 300.105 320.771 301.287 321.531 302.097C322.308 302.89 323.39 303.287 324.779 303.287C325.522 303.287 326.216 303.179 326.861 302.964C327.522 302.733 328.15 302.361 328.745 301.849L329.439 303.262C328.894 303.791 328.2 304.204 327.357 304.501C326.531 304.782 325.655 304.923 324.729 304.923Z" fill="#EDE9DF"/>
</svg>
