<svg width="2613" height="223" viewBox="0 0 2613 223" fill="none" xmlns="http://www.w3.org/2000/svg">
<path d="M209.024 2.20508V220.851H188.048V44.6113L104.484 151.531L20.9193 44.6113V220.851H0V2.20508H12.2688L104.484 120.66L197.038 2.20508H209.024Z" fill="#D2BCAE"/>
<path d="M496.977 2.20508L411.094 144.803V220.851H390.288V145.142L304.405 2.20508H328.434L400.634 120.886L472.948 2.20508H496.977Z" fill="#D2BCAE"/>
<path d="M862.897 159.108C862.897 178.049 855.038 193.655 839.377 205.472C823.998 217.12 805.397 223 783.912 223H782.103C761.014 223 742.752 218.42 727.769 209.656C712.843 200.723 701.987 188.453 695.768 173.074L694.863 171.038L709.281 157.638L710.977 161.935C716.009 174.544 724.603 184.665 736.589 192.015C748.688 199.366 763.954 203.041 782.103 203.041H783.912C800.195 203.041 814.16 198.913 825.411 190.771C836.606 182.742 842.034 172.452 842.034 159.165C842.034 146.725 838.302 137.396 830.67 131.007C822.867 124.391 810.372 119.925 793.523 117.776L767.403 114.101C745.126 111.217 728.278 105.507 717.592 97.0818C706.567 88.431 700.969 76.1615 700.969 60.556C700.969 42.6889 708.376 27.8185 723.133 16.6233C737.55 5.59767 754.907 0.0566406 774.47 0.0566406H778.145C793.919 0.0566406 808.676 3.27952 822.076 9.61218C835.589 15.9448 846.614 25.161 854.755 36.9217L856.338 39.1833L842.317 52.3576L840.168 49.4173C833.44 40.0314 824.507 32.681 813.708 27.6488C802.683 22.6166 790.81 20.0158 778.202 20.0158H774.527C760.674 20.0158 748.236 23.7474 737.493 31.2109C727.034 38.3917 721.945 47.9473 721.945 60.2734C721.945 69.8289 725.338 77.0096 732.349 82.268C739.699 87.809 752.194 91.7669 769.551 94.0851L795.559 97.7605C817.948 100.644 834.854 106.977 845.935 116.532C857.186 126.37 862.897 140.675 862.897 159.108Z" fill="#D2BCAE"/>
<path d="M1094.08 2.20508V22.1078H1024.6V220.851H1003.73V22.1078H934.247V2.20508H1094.08Z" fill="#D2BCAE"/>
<path d="M1352.69 32.681C1331.04 11.0256 1304.46 0 1273.88 0C1258.56 0 1244.25 2.77049 1231.13 8.25502C1217.96 13.7396 1205.97 21.8816 1195.17 32.681C1173.63 54.3364 1162.72 80.7979 1162.72 111.5C1162.72 142.202 1173.63 168.664 1195.17 190.319C1216.72 211.974 1243.23 223 1273.93 223C1304.52 223 1331.09 211.974 1352.75 190.319C1374.4 168.664 1385.32 142.089 1385.32 111.5C1385.26 80.7979 1374.29 54.3364 1352.69 32.681ZM1273.82 202.928C1248.66 202.928 1227.12 194.051 1209.76 176.523C1192.29 159.051 1183.53 137.17 1183.53 111.5C1183.53 85.717 1192.29 63.892 1209.76 46.3642C1227.12 28.8928 1248.66 19.9592 1273.82 19.9592C1298.87 19.9592 1320.41 28.8928 1337.99 46.3642C1355.52 63.892 1364.4 85.8301 1364.4 111.5C1364.4 137.17 1355.52 159.108 1338.16 176.523C1320.75 194.107 1299.09 202.928 1273.82 202.928Z" fill="#D2BCAE"/>
<path d="M1618.65 181.385C1608.98 166.289 1598.81 155.603 1588.35 149.722C1602.93 144.633 1614.92 136.944 1624.25 126.653C1635.44 114.384 1640.98 98.665 1640.98 79.9497C1640.98 55.3542 1631.94 36.017 1613.96 22.4471C1596.32 9.04671 1573.53 2.20508 1546.22 2.20508H1476.96V220.851H1497.83V157.751H1548.03C1560.02 157.751 1569.58 159.73 1576.59 163.575C1583.54 167.42 1591.46 176.127 1600.05 189.358L1620.46 220.851H1644.72L1618.65 181.385ZM1497.77 22.1078H1547.07C1568.56 22.1078 1586.42 27.1399 1600.11 36.8651C1613.73 46.5337 1620.35 60.5561 1620.35 79.8933C1620.35 99.2305 1613.73 113.253 1600.11 123.035C1586.42 132.76 1568.5 137.735 1547.07 137.735H1497.77V22.1078Z" fill="#D2BCAE"/>
<path d="M1930.01 22.1078V100.135H2040.49V119.812H1930.01V200.779H2046.2V220.851H1909.15V2.20508H2046.2V22.1078H1930.01Z" fill="#D2BCAE"/>
<path d="M2296.89 159.108C2296.89 178.049 2289.03 193.655 2273.37 205.472C2257.99 217.12 2239.39 223 2217.91 223H2216.1C2195.01 223 2176.75 218.42 2161.76 209.656C2146.84 200.723 2135.98 188.453 2129.65 173.074L2128.86 171.038L2143.27 157.638L2144.97 161.935C2150 174.544 2158.6 184.665 2170.58 192.015C2182.68 199.366 2197.95 203.041 2216.1 203.041H2217.91C2234.08 203.041 2248.15 198.913 2259.41 190.771C2270.6 182.742 2275.97 172.452 2275.97 159.165C2275.97 146.725 2272.3 137.396 2264.72 131.007C2256.92 124.391 2244.42 119.925 2227.52 117.776L2201.4 114.101C2179.12 111.217 2162.38 105.507 2151.64 97.0818C2140.62 88.431 2135.02 76.1615 2135.02 60.556C2135.02 42.6889 2142.43 27.8185 2157.18 16.6233C2171.6 5.59767 2188.96 0.0566406 2208.52 0.0566406H2212.2C2227.97 0.0566406 2242.73 3.27952 2256.13 9.61218C2269.64 15.9448 2280.66 25.161 2288.81 36.9217L2290.33 39.1833L2276.37 52.3576L2274.22 49.4173C2267.49 40.0314 2258.56 32.681 2247.76 27.6488C2236.73 22.6166 2224.86 20.0158 2212.25 20.0158H2208.58C2194.73 20.0158 2182.29 23.7474 2171.54 31.2109C2161.08 38.3917 2156 47.9473 2156 60.2734C2156 69.8289 2159.39 77.0096 2166.4 82.268C2173.75 87.809 2186.19 91.7669 2203.6 94.0851L2229.61 97.7605C2252 100.644 2268.9 106.977 2279.99 116.532C2291.18 126.37 2296.89 140.675 2296.89 159.108Z" fill="#D2BCAE"/>
<path d="M2396.68 201.005C2399.28 203.492 2400.7 206.546 2400.7 210.108C2400.7 213.613 2399.28 216.667 2396.68 219.211C2394.02 221.699 2390.86 222.943 2387.18 222.943C2383.51 222.943 2380.29 221.586 2377.69 219.211C2375.03 216.61 2373.67 213.557 2373.67 210.108C2373.67 206.546 2375.03 203.492 2377.69 201.005C2382.89 195.972 2391.37 195.972 2396.68 201.005Z" fill="#D2BCAE"/>
<path d="M2506.76 210.108C2506.76 213.613 2505.41 216.667 2502.75 219.211C2500.15 221.642 2496.93 222.943 2493.25 222.943C2489.69 222.943 2486.47 221.586 2483.87 219.211C2481.21 216.61 2479.85 213.557 2479.85 210.108C2479.85 206.546 2481.21 203.492 2483.87 201.005C2489.07 195.972 2497.55 195.972 2502.75 201.005C2505.46 203.492 2506.76 206.546 2506.76 210.108Z" fill="#D2BCAE"/>
<path d="M2613 210.109C2613 213.614 2611.64 216.668 2608.99 219.212C2606.33 221.7 2603.16 222.944 2599.49 222.944C2595.81 222.944 2592.59 221.587 2589.99 219.212C2587.33 216.611 2585.97 213.558 2585.97 210.109C2585.97 206.547 2587.33 203.493 2589.99 201.006C2595.19 195.973 2603.67 195.973 2608.93 201.006C2611.64 203.493 2613 206.547 2613 210.109Z" fill="#D2BCAE"/>
<path d="M1776.56 1.92285H1755.42V220.456H1776.56V1.92285Z" fill="#D2BCAE"/>
</svg>
