<svg width="478" height="41" viewBox="0 0 478 41" fill="none" xmlns="http://www.w3.org/2000/svg">
<path d="M38.2371 0.405273V40.6048H34.3999V8.20193L19.1134 27.8599L3.82679 8.20193V40.6048H0V0.405273H2.24436L19.1134 22.1839L36.0444 0.405273H38.2371Z" fill="#EDE9DF"/>
<path d="M90.9119 0.405762L75.2013 26.6233V40.6053H71.3952V26.6857L55.6846 0.405762H60.0802L73.2879 22.226L86.5163 0.405762H90.9119Z" fill="#EDE9DF"/>
<path d="M157.851 29.2529C157.851 32.7354 156.413 35.6046 153.548 37.7772C150.735 39.9187 147.332 40.9999 143.402 40.9999H143.071C139.213 40.9999 135.873 40.1578 133.132 38.5465C130.401 36.904 128.415 34.6482 127.278 31.8206L127.112 31.4463L129.75 28.9826L130.06 29.7727C130.98 32.0909 132.553 33.9517 134.745 35.3031C136.959 36.6545 139.751 37.3302 143.071 37.3302H143.402C146.381 37.3302 148.935 36.5713 150.994 35.0744C153.042 33.5982 154.034 31.7062 154.034 29.2633C154.034 26.9763 153.352 25.261 151.956 24.0863C150.528 22.87 148.242 22.0488 145.16 21.6537L140.382 20.978C136.307 20.4479 133.225 19.3979 131.27 17.849C129.253 16.2585 128.229 14.0026 128.229 11.1335C128.229 7.84847 129.584 5.11446 132.284 3.05614C134.921 1.02901 138.096 0.0102539 141.675 0.0102539H142.347C145.233 0.0102539 147.932 0.602802 150.383 1.7671C152.855 2.9314 154.872 4.62586 156.362 6.78813L156.651 7.20395L154.086 9.62613L153.693 9.08554C152.462 7.35988 150.828 6.00845 148.853 5.08325C146.836 4.15805 144.664 3.67988 142.357 3.67988H141.685C139.151 3.67988 136.876 4.36596 134.911 5.73817C132.997 7.05841 132.066 8.81527 132.066 11.0815C132.066 12.8383 132.687 14.1586 133.97 15.1253C135.314 16.1441 137.6 16.8718 140.775 17.298L145.533 17.9737C149.628 18.5039 152.721 19.6682 154.748 21.425C156.806 23.2339 157.851 25.8639 157.851 29.2529Z" fill="#EDE9DF"/>
<path d="M200.143 0.405762V4.06501H187.432V40.6053H183.616V4.06501H170.904V0.405762H200.143Z" fill="#EDE9DF"/>
<path d="M247.45 6.00862C243.489 2.02713 238.627 0 233.032 0C230.229 0 227.612 0.509372 225.213 1.51774C222.803 2.52611 220.61 4.02307 218.635 6.00862C214.694 9.99011 212.698 14.8552 212.698 20.5C212.698 26.1448 214.694 31.0099 218.635 34.9914C222.576 38.9729 227.426 41 233.042 41C238.638 41 243.499 38.9729 247.46 34.9914C251.421 31.0099 253.418 26.124 253.418 20.5C253.407 14.8552 251.401 9.99011 247.45 6.00862ZM233.022 37.3096C228.419 37.3096 224.479 35.6775 221.303 32.4549C218.108 29.2426 216.504 25.2196 216.504 20.5C216.504 15.7596 218.108 11.747 221.303 8.52435C224.479 5.31213 228.419 3.66962 233.022 3.66962C237.604 3.66962 241.544 5.31213 244.761 8.52435C247.967 11.747 249.591 15.7804 249.591 20.5C249.591 25.2196 247.967 29.253 244.792 32.4549C241.606 35.6879 237.645 37.3096 233.022 37.3096Z" fill="#EDE9DF"/>
<path d="M296.102 33.3492C294.333 30.5736 292.471 28.6089 290.558 27.5277C293.226 26.5921 295.419 25.1783 297.125 23.2863C299.173 21.0305 300.187 18.1405 300.187 14.6996C300.187 10.1776 298.532 6.62231 295.243 4.12738C292.016 1.66364 287.848 0.405762 282.852 0.405762H270.183V40.6053H273.999V29.0039H283.183C285.376 29.0039 287.124 29.3677 288.407 30.0746C289.679 30.7815 291.127 32.3824 292.699 34.815L296.432 40.6053H300.87L296.102 33.3492ZM273.989 4.06501H283.008C286.938 4.06501 290.206 4.9902 292.709 6.77823C295.202 8.55587 296.412 11.134 296.412 14.6893C296.412 18.2445 295.202 20.8226 292.709 22.621C290.206 24.4091 286.927 25.3239 283.008 25.3239H273.989V4.06501Z" fill="#EDE9DF"/>
<path d="M353.06 4.06452V18.4104H373.269V22.028H353.06V36.9144H374.314V40.6048H349.243V0.405273H374.314V4.06452H353.06Z" fill="#EDE9DF"/>
<path d="M420.174 29.2529C420.174 32.7354 418.737 35.6046 415.872 37.7772C413.058 39.9187 409.656 40.9999 405.725 40.9999H405.394C401.537 40.9999 398.196 40.1578 395.455 38.5465C392.725 36.904 390.739 34.6482 389.58 31.8206L389.436 31.4463L392.073 28.9826L392.383 29.7727C393.304 32.0909 394.876 33.9517 397.068 35.3031C399.282 36.6545 402.074 37.3302 405.394 37.3302H405.725C408.683 37.3302 411.259 36.5713 413.317 35.0744C415.365 33.5982 416.347 31.7062 416.347 29.2633C416.347 26.9763 415.675 25.261 414.289 24.0863C412.862 22.87 410.576 22.0488 407.484 21.6537L402.705 20.978C398.63 20.4479 395.569 19.3979 393.604 17.849C391.587 16.2585 390.563 14.0026 390.563 11.1335C390.563 7.84847 391.918 5.11446 394.617 3.05614C397.255 1.02901 400.43 0.0102539 404.008 0.0102539H404.681C407.566 0.0102539 410.266 0.602802 412.717 1.7671C415.189 2.9314 417.206 4.62586 418.695 6.78813L418.974 7.20395L416.42 9.62613L416.027 9.08554C414.796 7.35988 413.162 6.00845 411.186 5.08325C409.169 4.15805 406.998 3.67988 404.691 3.67988H404.019C401.485 3.67988 399.209 4.36596 397.244 5.73817C395.331 7.05841 394.4 8.81527 394.4 11.0815C394.4 12.8383 395.021 14.1586 396.303 15.1253C397.648 16.1441 399.923 16.8718 403.109 17.298L407.866 17.9737C411.962 18.5039 415.054 19.6682 417.082 21.425C419.13 23.2339 420.174 25.8639 420.174 29.2529Z" fill="#EDE9DF"/>
<path d="M438.429 36.9561C438.905 37.4135 439.164 37.9749 439.164 38.6298C439.164 39.2743 438.905 39.8357 438.429 40.3035C437.943 40.7609 437.364 40.9896 436.692 40.9896C436.019 40.9896 435.43 40.7401 434.954 40.3035C434.468 39.8253 434.22 39.2639 434.22 38.6298C434.22 37.9749 434.468 37.4135 434.954 36.9561C435.906 36.0309 437.457 36.0309 438.429 36.9561Z" fill="#EDE9DF"/>
<path d="M458.566 38.6298C458.566 39.2743 458.317 39.8357 457.831 40.3035C457.356 40.7505 456.766 40.9896 456.094 40.9896C455.442 40.9896 454.853 40.7401 454.377 40.3035C453.891 39.8253 453.643 39.2639 453.643 38.6298C453.643 37.9749 453.891 37.4135 454.377 36.9561C455.328 36.0309 456.88 36.0309 457.831 36.9561C458.328 37.4135 458.566 37.9749 458.566 38.6298Z" fill="#EDE9DF"/>
<path d="M478 38.6298C478 39.2743 477.752 39.8357 477.266 40.3035C476.78 40.7609 476.201 40.9896 475.529 40.9896C474.856 40.9896 474.267 40.7401 473.791 40.3035C473.305 39.8253 473.057 39.2639 473.057 38.6298C473.057 37.9749 473.305 37.4135 473.791 36.9561C474.743 36.0309 476.294 36.0309 477.256 36.9561C477.752 37.4135 478 37.9749 478 38.6298Z" fill="#EDE9DF"/>
<path d="M324.989 0.353516H321.121V40.5323H324.989V0.353516Z" fill="#EDE9DF"/>
</svg>
