<svg width="378" height="534" viewBox="0 0 378 534" fill="none" xmlns="http://www.w3.org/2000/svg">
<path d="M29.9533 26.0141C28.9616 26.0141 28.036 25.8819 27.1766 25.6175C26.3171 25.3365 25.6064 24.9481 25.0445 24.4523L25.7387 23.0391C26.3502 23.5184 27.0113 23.8738 27.722 24.1052C28.4492 24.3366 29.2013 24.4523 29.9781 24.4523C30.9697 24.4523 31.7135 24.2787 32.2093 23.9316C32.7217 23.568 32.9779 23.0722 32.9779 22.4441C32.9779 21.9648 32.8126 21.5847 32.482 21.3037C32.168 21.0062 31.6474 20.7748 30.9202 20.6095L28.6145 20.1385C27.5567 19.9071 26.7634 19.5187 26.2345 18.9733C25.7056 18.4113 25.4412 17.7006 25.4412 16.8412C25.4412 16.1139 25.6312 15.4776 26.0114 14.9322C26.3915 14.3702 26.9452 13.9323 27.6724 13.6182C28.3997 13.2877 29.2508 13.1224 30.226 13.1224C31.135 13.1224 31.9697 13.2629 32.73 13.5439C33.5068 13.8083 34.1514 14.1967 34.6637 14.7091L33.9448 16.0974C33.4489 15.6181 32.8787 15.2628 32.2341 15.0314C31.6061 14.7834 30.9532 14.6595 30.2756 14.6595C29.3004 14.6595 28.5649 14.8578 28.0691 15.2545C27.5898 15.6346 27.3501 16.1387 27.3501 16.7668C27.3501 17.2461 27.4989 17.6428 27.7964 17.9568C28.1104 18.2543 28.5897 18.4774 29.2343 18.6262L31.54 19.0972C32.6639 19.3451 33.4985 19.7335 34.0439 20.2624C34.6059 20.7748 34.8869 21.469 34.8869 22.345C34.8869 23.0887 34.6803 23.7416 34.2671 24.3035C33.8539 24.8489 33.2754 25.2704 32.5316 25.5679C31.8044 25.8654 30.945 26.0141 29.9533 26.0141ZM42.8474 26.0141C41.74 26.0141 40.7731 25.758 39.9467 25.2456C39.1203 24.7167 38.4757 23.9729 38.013 23.0143C37.5667 22.0557 37.3436 20.907 37.3436 19.5683C37.3436 18.213 37.5667 17.056 38.013 16.0974C38.4757 15.1388 39.1203 14.4033 39.9467 13.8909C40.7731 13.3786 41.74 13.1224 42.8474 13.1224C43.9713 13.1224 44.9381 13.4116 45.748 13.9901C46.5744 14.5521 47.1198 15.3206 47.3843 16.2957H47.0868L47.3595 13.3455H49.2932C49.2437 13.8248 49.1941 14.3124 49.1445 14.8082C49.1114 15.2875 49.0949 15.7586 49.0949 16.2214V25.791H47.0868V22.8656H47.3595C47.095 23.8407 46.5496 24.6093 45.7232 25.1712C44.8968 25.7332 43.9382 26.0141 42.8474 26.0141ZM43.244 24.3779C44.434 24.3779 45.3761 23.9729 46.0703 23.1631C46.7645 22.3367 47.1116 21.1384 47.1116 19.5683C47.1116 17.9816 46.7645 16.7833 46.0703 15.9735C45.3761 15.1471 44.434 14.7339 43.244 14.7339C42.0705 14.7339 41.1285 15.1471 40.4178 15.9735C39.7236 16.7833 39.3765 17.9816 39.3765 19.5683C39.3765 21.1384 39.7236 22.3367 40.4178 23.1631C41.1285 23.9729 42.0705 24.3779 43.244 24.3779ZM52.9775 25.791V7.54423H54.9857V25.791H52.9775ZM64.4135 26.0141C62.4632 26.0141 60.9262 25.4522 59.8023 24.3283C58.6784 23.1879 58.1164 21.6095 58.1164 19.5931C58.1164 18.2874 58.3643 17.1552 58.8602 16.1966C59.356 15.2214 60.0502 14.4694 60.9427 13.9405C61.8352 13.3951 62.8599 13.1224 64.0169 13.1224C65.1573 13.1224 66.1159 13.362 66.8927 13.8414C67.6695 14.3207 68.2645 15.0066 68.6777 15.8991C69.0909 16.7751 69.2975 17.8163 69.2975 19.0228V19.7666H59.6535V18.5022H67.9836L67.5621 18.8245C67.5621 17.5023 67.2646 16.4693 66.6696 15.7255C66.0746 14.9818 65.1904 14.6099 64.0169 14.6099C62.7773 14.6099 61.8104 15.0479 61.1162 15.9239C60.4221 16.7833 60.075 17.9485 60.075 19.4195V19.6426C60.075 21.1963 60.4551 22.378 61.2154 23.1879C61.9922 23.9812 63.0748 24.3779 64.4631 24.3779C65.2069 24.3779 65.901 24.2704 66.5456 24.0556C67.2068 23.8242 67.8348 23.4523 68.4298 22.94L69.124 24.3531C68.5786 24.882 67.8844 25.2952 67.0415 25.5927C66.2151 25.8737 65.3391 26.0141 64.4135 26.0141Z" fill="#EDE9DF"/>
<path d="M6.40055 359.464C5.40887 359.464 4.48331 359.332 3.62386 359.068C2.76441 358.787 2.05371 358.398 1.49177 357.902L2.18594 356.489C2.79747 356.969 3.45858 357.324 4.16928 357.555C4.89651 357.787 5.64853 357.902 6.42534 357.902C7.41701 357.902 8.16077 357.729 8.6566 357.382C9.16897 357.018 9.42515 356.522 9.42515 355.894C9.42515 355.415 9.25987 355.035 8.92932 354.754C8.61529 354.456 8.09466 354.225 7.36743 354.06L5.06179 353.589C4.004 353.357 3.21067 352.969 2.68177 352.423C2.15288 351.862 1.88844 351.151 1.88844 350.291C1.88844 349.564 2.07851 348.928 2.45865 348.382C2.83879 347.82 3.39247 347.382 4.1197 347.068C4.84693 346.738 5.69811 346.573 6.67326 346.573C7.58229 346.573 8.41695 346.713 9.17723 346.994C9.95404 347.258 10.5986 347.647 11.111 348.159L10.392 349.548C9.8962 349.068 9.32598 348.713 8.6814 348.482C8.05334 348.234 7.40049 348.11 6.72284 348.11C5.7477 348.11 5.01221 348.308 4.51637 348.705C4.03706 349.085 3.79741 349.589 3.79741 350.217C3.79741 350.696 3.94616 351.093 4.24366 351.407C4.55769 351.704 5.037 351.928 5.68159 352.076L7.98723 352.547C9.11112 352.795 9.94578 353.184 10.4912 353.713C11.0531 354.225 11.3341 354.919 11.3341 355.795C11.3341 356.539 11.1275 357.192 10.7143 357.754C10.3011 358.299 9.72265 358.721 8.9789 359.018C8.25167 359.316 7.39222 359.464 6.40055 359.464ZM19.2946 359.464C18.1873 359.464 17.2204 359.208 16.394 358.696C15.5676 358.167 14.923 357.423 14.4602 356.465C14.014 355.506 13.7908 354.357 13.7908 353.018C13.7908 351.663 14.014 350.506 14.4602 349.548C14.923 348.589 15.5676 347.853 16.394 347.341C17.2204 346.829 18.1873 346.573 19.2946 346.573C20.4185 346.573 21.3854 346.862 22.1953 347.44C23.0217 348.002 23.5671 348.771 23.8315 349.746H23.534L23.8067 346.796H25.7405C25.6909 347.275 25.6413 347.763 25.5918 348.258C25.5587 348.738 25.5422 349.209 25.5422 349.672V359.241H23.534V356.316H23.8067C23.5423 357.291 22.9969 358.059 22.1705 358.621C21.3441 359.183 20.3855 359.464 19.2946 359.464ZM19.6913 357.828C20.8813 357.828 21.8234 357.423 22.5176 356.613C23.2117 355.787 23.5588 354.589 23.5588 353.018C23.5588 351.432 23.2117 350.234 22.5176 349.424C21.8234 348.597 20.8813 348.184 19.6913 348.184C18.5178 348.184 17.5757 348.597 16.865 349.424C16.1709 350.234 15.8238 351.432 15.8238 353.018C15.8238 354.589 16.1709 355.787 16.865 356.613C17.5757 357.423 18.5178 357.828 19.6913 357.828ZM29.4248 359.241V340.994H31.4329V359.241H29.4248ZM40.8608 359.464C38.9105 359.464 37.3734 358.902 36.2495 357.778C35.1256 356.638 34.5637 355.06 34.5637 353.043C34.5637 351.738 34.8116 350.605 35.3074 349.647C35.8033 348.672 36.4974 347.92 37.3899 347.391C38.2825 346.845 39.3072 346.573 40.4641 346.573C41.6046 346.573 42.5632 346.812 43.34 347.292C44.1168 347.771 44.7118 348.457 45.125 349.349C45.5382 350.225 45.7448 351.267 45.7448 352.473V353.217H36.1008V351.952H44.4308L44.0094 352.275C44.0094 350.952 43.7119 349.919 43.1169 349.176C42.5219 348.432 41.6376 348.06 40.4641 348.06C39.2245 348.06 38.2577 348.498 37.5635 349.374C36.8693 350.234 36.5222 351.399 36.5222 352.87V353.093C36.5222 354.646 36.9024 355.828 37.6627 356.638C38.4395 357.431 39.522 357.828 40.9104 357.828C41.6541 357.828 42.3483 357.721 42.9929 357.506C43.654 357.274 44.2821 356.903 44.8771 356.39L45.5713 357.803C45.0258 358.332 44.3317 358.745 43.4887 359.043C42.6623 359.324 41.7864 359.464 40.8608 359.464Z" fill="#EDE9DF"/>
<path d="M290.267 304.922C289.275 304.922 288.35 304.79 287.49 304.526C286.631 304.245 285.92 303.856 285.358 303.36L286.052 301.947C286.664 302.427 287.325 302.782 288.035 303.013C288.763 303.245 289.515 303.36 290.292 303.36C291.283 303.36 292.027 303.187 292.523 302.84C293.035 302.476 293.291 301.98 293.291 301.352C293.291 300.873 293.126 300.493 292.796 300.212C292.481 299.914 291.961 299.683 291.234 299.518L288.928 299.047C287.87 298.815 287.077 298.427 286.548 297.881C286.019 297.32 285.755 296.609 285.755 295.749C285.755 295.022 285.945 294.386 286.325 293.84C286.705 293.278 287.259 292.84 287.986 292.526C288.713 292.196 289.564 292.031 290.539 292.031C291.449 292.031 292.283 292.171 293.043 292.452C293.82 292.717 294.465 293.105 294.977 293.617L294.258 295.006C293.762 294.526 293.192 294.171 292.548 293.94C291.92 293.692 291.267 293.568 290.589 293.568C289.614 293.568 288.878 293.766 288.383 294.163C287.903 294.543 287.664 295.047 287.664 295.675C287.664 296.154 287.812 296.551 288.11 296.865C288.424 297.163 288.903 297.386 289.548 297.534L291.853 298.005C292.977 298.253 293.812 298.642 294.357 299.171C294.919 299.683 295.2 300.377 295.2 301.253C295.2 301.997 294.994 302.65 294.581 303.212C294.167 303.757 293.589 304.179 292.845 304.476C292.118 304.774 291.258 304.922 290.267 304.922ZM303.161 304.922C302.053 304.922 301.087 304.666 300.26 304.154C299.434 303.625 298.789 302.881 298.326 301.923C297.88 300.964 297.657 299.815 297.657 298.476C297.657 297.121 297.88 295.964 298.326 295.006C298.789 294.047 299.434 293.312 300.26 292.799C301.087 292.287 302.053 292.031 303.161 292.031C304.285 292.031 305.252 292.32 306.061 292.898C306.888 293.46 307.433 294.229 307.698 295.204H307.4L307.673 292.254H309.607C309.557 292.733 309.508 293.221 309.458 293.716C309.425 294.196 309.408 294.667 309.408 295.13V304.699H307.4V301.774H307.673C307.409 302.749 306.863 303.517 306.037 304.079C305.21 304.641 304.252 304.922 303.161 304.922ZM303.558 303.286C304.748 303.286 305.69 302.881 306.384 302.071C307.078 301.245 307.425 300.047 307.425 298.476C307.425 296.89 307.078 295.692 306.384 294.882C305.69 294.055 304.748 293.642 303.558 293.642C302.384 293.642 301.442 294.055 300.731 294.882C300.037 295.692 299.69 296.89 299.69 298.476C299.69 300.047 300.037 301.245 300.731 302.071C301.442 302.881 302.384 303.286 303.558 303.286ZM313.291 304.699V286.452H315.299V304.699H313.291ZM324.727 304.922C322.777 304.922 321.24 304.36 320.116 303.237C318.992 302.096 318.43 300.518 318.43 298.501C318.43 297.196 318.678 296.063 319.174 295.105C319.669 294.13 320.364 293.378 321.256 292.849C322.149 292.303 323.173 292.031 324.33 292.031C325.471 292.031 326.429 292.27 327.206 292.75C327.983 293.229 328.578 293.915 328.991 294.807C329.404 295.683 329.611 296.725 329.611 297.931V298.675H319.967V297.41H328.297L327.876 297.733C327.876 296.41 327.578 295.377 326.983 294.634C326.388 293.89 325.504 293.518 324.33 293.518C323.091 293.518 322.124 293.956 321.43 294.832C320.736 295.692 320.388 296.857 320.388 298.328V298.551C320.388 300.104 320.769 301.286 321.529 302.096C322.306 302.889 323.388 303.286 324.777 303.286C325.52 303.286 326.215 303.179 326.859 302.964C327.52 302.732 328.148 302.361 328.743 301.848L329.437 303.261C328.892 303.79 328.198 304.203 327.355 304.501C326.529 304.782 325.653 304.922 324.727 304.922Z" fill="#EDE9DF"/>
</svg>
